<svg id="wave" style="transform:rotate(0deg); transition: 0.3s" viewBox="0 0 1440 490" version="1.1" xmlns="http://www.w3.org/2000/svg"><defs><linearGradient id="sw-gradient-0" x1="0" x2="0" y1="1" y2="0"><stop stop-color="rgba(31, 162, 255, 1)" offset="0%"></stop><stop stop-color="rgba(18, 216, 250, 1)" offset="100%"></stop></linearGradient></defs><path style="transform:translate(0, 0px); opacity:1" fill="url(#sw-gradient-0)" d="M0,196L240,179.7C480,163,960,131,1440,98C1920,65,2400,33,2880,73.5C3360,114,3840,229,4320,261.3C4800,294,5280,245,5760,196C6240,147,6720,98,7200,98C7680,98,8160,147,8640,171.5C9120,196,9600,196,10080,204.2C10560,212,11040,229,11520,269.5C12000,310,12480,376,12960,400.2C13440,425,13920,408,14400,392C14880,376,15360,359,15840,318.5C16320,278,16800,212,17280,179.7C17760,147,18240,147,18720,147C19200,147,19680,147,20160,171.5C20640,196,21120,245,21600,269.5C22080,294,22560,294,23040,302.2C23520,310,24000,327,24480,318.5C24960,310,25440,278,25920,285.8C26400,294,26880,343,27360,359.3C27840,376,28320,359,28800,334.8C29280,310,29760,278,30240,277.7C30720,278,31200,310,31680,277.7C32160,245,32640,147,33120,138.8C33600,131,34080,212,34320,253.2L34560,294L34560,490L34320,490C34080,490,33600,490,33120,490C32640,490,32160,490,31680,490C31200,490,30720,490,30240,490C29760,490,29280,490,28800,490C28320,490,27840,490,27360,490C26880,490,26400,490,25920,490C25440,490,24960,490,24480,490C24000,490,23520,490,23040,490C22560,490,22080,490,21600,490C21120,490,20640,490,20160,490C19680,490,19200,490,18720,490C18240,490,17760,490,17280,490C16800,490,16320,490,15840,490C15360,490,14880,490,14400,490C13920,490,13440,490,12960,490C12480,490,12000,490,11520,490C11040,490,10560,490,10080,490C9600,490,9120,490,8640,490C8160,490,7680,490,7200,490C6720,490,6240,490,5760,490C5280,490,4800,490,4320,490C3840,490,3360,490,2880,490C2400,490,1920,490,1440,490C960,490,480,490,240,490L0,490Z"></path></svg>