<svg id="wave" style="transform:rotate(0deg); transition: 0.3s" viewBox="0 0 1440 490" version="1.1" xmlns="http://www.w3.org/2000/svg"><defs><linearGradient id="sw-gradient-0" x1="0" x2="0" y1="1" y2="0"><stop stop-color="rgba(0, 99.517, 255, 1)" offset="0%"></stop><stop stop-color="rgba(18, 216, 250, 1)" offset="100%"></stop></linearGradient></defs><path style="transform:translate(0, 0px); opacity:1" fill="url(#sw-gradient-0)" d="M0,147L1440,0L2880,49L4320,392L5760,49L7200,294L8640,147L10080,49L11520,0L12960,0L14400,98L15840,0L17280,147L18720,343L20160,98L21600,245L23040,441L24480,196L25920,98L27360,343L28800,98L30240,98L31680,98L33120,343L34560,49L34560,490L33120,490L31680,490L30240,490L28800,490L27360,490L25920,490L24480,490L23040,490L21600,490L20160,490L18720,490L17280,490L15840,490L14400,490L12960,490L11520,490L10080,490L8640,490L7200,490L5760,490L4320,490L2880,490L1440,490L0,490Z"></path></svg>