<svg id="wave" style="transform:rotate(0deg); transition: 0.3s" viewBox="0 0 1440 490" version="1.1" xmlns="http://www.w3.org/2000/svg"><defs><linearGradient id="sw-gradient-0" x1="0" x2="0" y1="1" y2="0"><stop stop-color="rgba(243, 106, 62, 1)" offset="0%"></stop><stop stop-color="rgba(255, 179, 11, 1)" offset="100%"></stop></linearGradient></defs><path style="transform:translate(0, 0px); opacity:1" fill="url(#sw-gradient-0)" d="M0,49L240,81.7C480,114,960,180,1440,179.7C1920,180,2400,114,2880,122.5C3360,131,3840,212,4320,269.5C4800,327,5280,359,5760,375.7C6240,392,6720,392,7200,392C7680,392,8160,392,8640,383.8C9120,376,9600,359,10080,318.5C10560,278,11040,212,11520,187.8C12000,163,12480,180,12960,187.8C13440,196,13920,196,14400,196C14880,196,15360,196,15840,179.7C16320,163,16800,131,17280,106.2C17760,82,18240,65,18720,73.5C19200,82,19680,114,20160,106.2C20640,98,21120,49,21600,32.7C22080,16,22560,33,23040,32.7C23520,33,24000,16,24480,8.2C24960,0,25440,0,25920,73.5C26400,147,26880,294,27360,343C27840,392,28320,343,28800,277.7C29280,212,29760,131,30240,122.5C30720,114,31200,180,31680,212.3C32160,245,32640,245,33120,261.3C33600,278,34080,310,34320,326.7L34560,343L34560,490L34320,490C34080,490,33600,490,33120,490C32640,490,32160,490,31680,490C31200,490,30720,490,30240,490C29760,490,29280,490,28800,490C28320,490,27840,490,27360,490C26880,490,26400,490,25920,490C25440,490,24960,490,24480,490C24000,490,23520,490,23040,490C22560,490,22080,490,21600,490C21120,490,20640,490,20160,490C19680,490,19200,490,18720,490C18240,490,17760,490,17280,490C16800,490,16320,490,15840,490C15360,490,14880,490,14400,490C13920,490,13440,490,12960,490C12480,490,12000,490,11520,490C11040,490,10560,490,10080,490C9600,490,9120,490,8640,490C8160,490,7680,490,7200,490C6720,490,6240,490,5760,490C5280,490,4800,490,4320,490C3840,490,3360,490,2880,490C2400,490,1920,490,1440,490C960,490,480,490,240,490L0,490Z"></path></svg>